<?xml version="1.0" encoding="utf-8"?>
<!-- Generator: Adobe Illustrator 21.0.1, SVG Export Plug-In . SVG Version: 6.00 Build 0)  -->
<svg version="1.1" id="Layer_1" xmlns="http://www.w3.org/2000/svg" xmlns:xlink="http://www.w3.org/1999/xlink" x="0px" y="0px"
	 viewBox="0 0 566.9 566.9" style="enable-background:new 0 0 566.9 566.9;" xml:space="preserve">
<style type="text/css">
	.st0{display:none;clip-path:url(#SVGID_2_);fill:#E3A500;}
	.st1{clip-path:url(#SVGID_2_);fill:#FFCB05;}
	.st2{clip-path:url(#SVGID_2_);}
	.st3{fill:#FFCB05;}
	.st4{fill:#FFFFFF;}
	.st5{fill:#FFA105;}
	.st6{fill:#C9252C;}
	.st7{fill:#005BAA;}
	.st8{fill:#00417A;}
	.st9{fill:#A81E2D;}
	.st10{fill:#FFFFFF;stroke:url(#SVGID_3_);stroke-miterlimit:10;}
	.st11{fill:#FFFFFF;stroke:url(#SVGID_4_);stroke-miterlimit:10;}
</style>
<g>
	<defs>
		<rect id="SVGID_1_" x="0" width="566.9" height="566.9"/>
	</defs>
	<clipPath id="SVGID_2_">
		<use xlink:href="#SVGID_1_"  style="display:none;overflow:visible;"/>
	</clipPath>
	<rect x="-31.8" y="-40.8" class="st0" width="640.1" height="652.4"/>
	<polygon class="st1" points="93.3,234.2 81.7,225.8 85.6,239.1 73.3,243.4 84.3,248.3 76.1,257.7 87.4,256 89.9,268.2 96.8,258.3 
		109.1,265.7 104.8,253.4 122.2,254.7 108.9,245.5 119.9,235 105,236.8 103.2,224.5 	"/>
	<polygon class="st1" points="502.6,514.5 489.8,509.3 497.9,518.6 485.7,520.6 498.3,523.6 492,532 502.2,527.9 506.1,538.7 
		509.1,527.9 525.7,532 514.3,522.3 526.8,515.3 513,516.6 516.5,504.7 507.8,514.5 504.3,503.2 	"/>
	<circle class="st1" cx="431.1" cy="352.3" r="6.5"/>
	<circle class="st1" cx="63.6" cy="501.2" r="2.2"/>
	<circle class="st1" cx="204.1" cy="118.1" r="3.4"/>
	<circle class="st1" cx="481.1" cy="530" r="2.5"/>
	<circle class="st1" cx="494" cy="503.3" r="2.3"/>
	<circle class="st1" cx="430.3" cy="198.3" r="7.2"/>
	<circle class="st1" cx="91.3" cy="216.7" r="2.1"/>
	<circle class="st1" cx="49.3" cy="522.8" r="8.2"/>
	<circle class="st1" cx="124.3" cy="274.2" r="8.1"/>
	<g class="st2">
		<path class="st3" d="M413.2,357.5c-2.8-51-1.4-102-1.7-153c0,0.2,0,0.5,0,0.7c0.1-16.2,2.3-32.3,2.5-48.4c0.1-9.5-1.2-19-0.8-28.5
			c0.2-4.5,1.4-12.6-4.9-13.2c-10.1-1-22.2,16.6-29,22.2c-1.7,1.4-9.6,9.3-14,12.3c-11.7-4-23.5-6.1-35.7-8
			c-15-2.3-29.6-4.8-44.8-5.9c-14.8-1-29.6-0.6-44.5,0.2c-8.2,0.4-16.2,0.9-24.3,1.9c-5.1,0.6-10,2-15,3c-0.7,0.1-6.4-10-7.1-11.1
			c-2.4-3.7-4.8-7.4-7.3-11.1c-4.6-6.8-13.2-24.8-24-20.6c-5.4,2.1-6.4,9.1-6.9,14.1c-0.8,9.2-0.8,18.4-1.5,27.6
			c-0.5,7.1-1.2,14.2-1.9,21.3c-0.8,8-1.7,16-2.5,24c-3.4,35.8-3.4,72-6.4,107.9c-1.3,15.9-4,32.9-2.5,48.8
			c-1.6,29.5-1.8,59.1-2.5,88.7c0,1.5,0,3,0,4.6c0,4.4-6.7,131.5-7,135.9c93.3-0.3,186.5-0.8,279.8-0.3c-0.2-8.2,0.4-16.5,0.7-24.7
			c1-28.2,2.3-56.4,3.3-84.6C416.6,426.4,415.1,392.3,413.2,357.5z"/>
		<path d="M358.4,177.6c-10.6-1.8-26.1,2-30,13.3c-2.4,7,1.1,14.4,7.1,18.2c2.4,1.5,5.2,2.3,7.9,2.9c5.8,1.3,12,1.4,17.7-0.2
			c2.6-0.7,5.4-1.9,7.4-3.8C381.2,196.6,373.9,180.2,358.4,177.6z"/>
		<path d="M235.4,183.4c-4.1-8.2-14.4-9.8-22.5-9.8c-4,0-8.1,1.5-11.8,3.9c-1.1,0.6-2.1,1.3-3,2.3c-4,4-7.7,8.6-7.6,14.5
			c0.1,7.6,6.8,14,13.6,16c6.5,2,14.1,1.4,20.4-1.1c3.2-1.3,6.4-3.3,8.7-5.8C238.6,197.6,238.8,190.1,235.4,183.4z"/>
		<path class="st4" d="M228.8,192.4c-0.9-2.6-4-5.1-6.8-6.1c-4.5-1.7-10-0.8-14.5,0.8c-3.1,1.1-8.8,4.7-9.1,8.3
			c-0.4,5.3,9.7,5.3,13,5.3c4.8,0,10.3-0.9,14.6-3.1C228.9,196.2,229.5,194.3,228.8,192.4z"/>
		<path d="M217.4,188.9c-2-2.2-6-2-7.7,0.4c-1.5,2-0.8,5.1,1.5,6.2c0.3,0.1,0.6,0.2,0.9,0.3c0.9,0.3,1.9,0.3,2.8,0.2
			C218.5,195.4,219.7,191.5,217.4,188.9z"/>
		<path class="st4" d="M363.8,193.2c-2.5-2.5-8-4.5-9.9-4.6c-3.5-0.1-7.2,0.5-10.4,1.9c-3.9,1.7-7.7,6.5-2.7,9.1
			c6.8,3.7,15.9,2.5,22.3-1.3C365.8,196.6,365.4,194.8,363.8,193.2z"/>
		<path d="M352,190.3c-3-1.2-8.3,1.2-6.4,5c1.4,2.8,5.3,4.2,7.9,2.2c2.7-2.1,1.7-5.5-1-7C352.3,190.5,352.1,190.4,352,190.3z"/>
		<path class="st5" d="M405.1,132.2c-3.2-4.2-12.9,4-18,9.4c-1,0.8-2,1.6-2.9,2.4c-1.7,1.4-7.5,6.2-6.7,9.1
			c1.1,4.1,8.1,6.9,11.3,8.9c3.4,2.1,6.6,3.5,9.6,0.2c3.5-3.8,4.9-11.5,6-16.3C405.1,142.3,407.7,135.7,405.1,132.2z"/>
		<path class="st5" d="M183.1,127.2c-2.8-5.3-5.7-9-10.9-12.1c-9.1-5.5-8.8,18.4-8.9,22.6c-0.1,3.4-1,9.2,2.7,11.3
			c3.6,2.1,9.4-1.2,12.8-2.3c2.9-1,7.8-2,7.9-6C186.9,136.5,185,130.8,183.1,127.2z"/>
		<path d="M281.1,222.3c-2,7.8-6.5,10.4-13.6,12.9c-6.8,2.4-19.1-0.5-21.1-8c-0.2-0.9-1.6-0.7-1.7,0.2c-0.3,9.3,12.7,11,19.5,11.4
			c9.3,0.6,18.5-7.3,19.5-16.2C284,221.1,281.5,220.8,281.1,222.3z"/>
		<path d="M321.7,226.8c-6.8,16.4-33,11-37-4.7c-0.3-1-1.9-0.8-1.9,0.3c0.3,20.3,35.8,24.1,41.6,5.2
			C325,225.8,322.4,225.2,321.7,226.8z"/>
		<path d="M295,236.2c-4.3-1.7-9.6-5.7-9.8-10.5c-0.1-1.6-2.5-2.6-3.3-0.9c-1.3,2.9-2.6,5.3-4.8,7.7c-2,2.1-4.8,2.8-7,4.7
			c0,0,0,0,0,0c-0.5-0.9-2-0.8-2,0.5c-0.1,6.1,4.9,11.2,11.1,11.3c7.6,0.2,14.2-3.5,17-10.6C296.6,237.4,295.8,236.5,295,236.2z"/>
		<path class="st6" d="M279.3,239.2c-2.3,0.4-5.5,1.6-5.6,4.4c-0.1,3.9,4.5,3.8,7.2,3.8c2.7,0.1,5.5-0.6,6.3-3
			C288.7,239.8,282.6,238.6,279.3,239.2z"/>
		<path class="st6" d="M293.8,214.9c-0.6-3.7-4.7-5.9-8-6.3c-4.9-0.7-15.5,2-13.3,8.9c2.3,7.3,10.8,8.3,17.1,5.6
			C293.1,221.7,294.3,218.5,293.8,214.9z"/>
		<path class="st5" d="M254.5,224.2c-1.3,0-1.3,2,0,2C255.7,226.2,255.7,224.2,254.5,224.2z"/>
		<path class="st5" d="M263.7,221.5c-1.5,0-1.5,2.3,0,2.3S265.2,221.5,263.7,221.5z"/>
		<path class="st5" d="M260.9,228.6c-1.6,0-1.6,2.5,0,2.5C262.5,231,262.5,228.6,260.9,228.6z"/>
		<path class="st5" d="M300.4,221.1c-1.6,0-1.6,2.5,0,2.5C302,223.6,302,221.1,300.4,221.1z"/>
		<path class="st5" d="M310.5,224.1c-1.3-1.3-3,1.4-1.2,2C310.5,226.4,311.3,224.9,310.5,224.1z"/>
		<path class="st5" d="M303,228.5c-1.7,0-1.7,2.6,0,2.6C304.7,231.1,304.7,228.5,303,228.5z"/>
		<path class="st6" d="M193.8,215c-4.4-5.2-13.2-3.8-16.7,1.7c-2.5,3.9-2.2,10.3,2,13C188.3,235.9,201.6,224.2,193.8,215z"/>
		<path class="st6" d="M389.1,221.6c-2.9-6.6-13.5-7.5-18.6-3.1c-6.9,6.1-2.6,15.6,5.6,17.6C384.5,238.2,392.9,230.2,389.1,221.6z"
			/>
		<path class="st5" d="M171.8,378.2c-0.1-1.3-1.9-1.3-2,0c-0.4,3.6-0.7,7.5-0.3,11.2c0.1,1.2,1.8,1.2,1.9,0
			C171.8,385.8,172.1,381.8,171.8,378.2z"/>
		<path class="st5" d="M190.9,365.5c-0.1-0.9-1.6-1.4-1.8-0.2c-0.5,3.1-1.2,6.4-0.8,9.5c0.1,1,1.7,1.4,1.8,0.3
			C190.6,372,191.3,368.6,190.9,365.5z"/>
		<path class="st5" d="M176.9,343.2c-0.1-1-1.5-1-1.6,0c-0.3,3.5-0.5,6.9-0.9,10.4c-0.1,1,1.5,1.2,1.8,0.2
			C177.3,350.4,177.2,346.7,176.9,343.2z"/>
		<path class="st5" d="M192.8,327c-0.2,2.8-1.5,5.6-1,8.3c0.2,0.9,1.6,0.9,1.8,0c0.7-2.6,1.3-5.6,1.3-8.3
			C194.9,325.6,192.9,325.6,192.8,327z"/>
		<path class="st5" d="M178,302.1c-0.7,2.8-1.5,6.1-1.2,9.1c0.1,1.1,1.6,1.1,1.8,0c0.4-2.9,1-5.9,1.1-8.9
			C179.7,301.3,178.2,301.2,178,302.1z"/>
		<path class="st5" d="M161.3,323.9c-0.2-1.2-1.8-1.2-1.9,0c-0.3,2.7,0,5.2-0.7,7.8c-0.3,1.1,1.1,1.6,1.7,0.7
			C162,330.1,161.6,326.6,161.3,323.9z"/>
		<path class="st5" d="M152.4,358.2c0-1.1-1.7-1.1-1.7,0c-0.3,4.3-1.1,8.8-0.8,13.1c0.1,1.2,1.7,1.2,1.9,0
			C152.1,367,152.5,362.5,152.4,358.2z"/>
		<path class="st5" d="M157.8,394.8c-0.1-1.3-1.8-1.2-1.9,0c-0.3,3.7-1,8.3,1,11.6c0.5,0.9,1.9,0.3,1.6-0.7
			C157.4,402.1,158,398.5,157.8,394.8z"/>
		<path class="st5" d="M184.4,399c-0.2-1.2-1.8-1.2-1.9,0c-0.3,2.9-0.3,6,0,8.9c0.1,1.2,1.7,1.2,1.8,0
			C184.7,405,184.8,401.9,184.4,399z"/>
		<path class="st5" d="M171.3,417.9c-0.1-1.2-1.8-1.2-1.9,0c-0.3,2.8-0.8,5.9-0.3,8.7c0.2,0.9,1.6,0.9,1.8,0
			C171.4,423.9,171.5,420.7,171.3,417.9z"/>
		<path class="st5" d="M153.9,434.1c0-1.1-1.7-1.1-1.7,0c-0.1,3.6-0.4,7.2,0,10.8c0.1,1.1,1.7,1.1,1.8,0
			C154.2,441.3,154,437.6,153.9,434.1z"/>
		<path class="st5" d="M183.7,441.8c0-1.3-2-1.3-2,0c0,2.4,0.1,4.7-0.3,7.1c-0.1,0.9,1.2,1.7,1.7,0.7
			C184.2,447.1,183.7,444.4,183.7,441.8z"/>
		<path class="st5" d="M203.9,409.4c-0.1-1.1-1.6-1.1-1.7,0c-0.2,3.2-0.4,6.5-0.1,9.6c0.1,1.2,1.7,1.2,1.8,0
			C204.3,415.9,204.1,412.6,203.9,409.4z"/>
		<path class="st5" d="M208.4,374.8c-0.2-1.4-2.3-0.8-2.1,0.6c0.3,1.5-0.3,3.1-0.4,4.6c-0.2,1.7-0.1,3.6,0.2,5.4
			c0.2,0.9,1.7,0.9,1.8,0c0.3-2,0-4.1,0.3-6.1C208.4,377.8,208.6,376.3,208.4,374.8z"/>
		<path class="st5" d="M202.5,346.2c-0.1-0.9-1.7-1.4-1.8-0.2c-0.5,3.2-1.2,6.7-0.8,9.9c0.1,0.9,1.7,1.4,1.8,0.2
			C202.1,352.9,202.9,349.5,202.5,346.2z"/>
		<path class="st5" d="M225.7,336.2c-0.2-1.3-2.1-1.4-2.1,0c0.1,3.7-1.6,7.4-1,11c0.1,0.9,1.6,0.8,1.8,0
			C225.1,343.8,226.1,339.8,225.7,336.2z"/>
		<path class="st5" d="M213.2,316.6c-0.1-1-1.6-1.1-1.6,0c-0.2,3.1-0.2,6-1.2,9c-0.4,1.1,1.1,1.5,1.7,0.7
			C214,323.5,213.4,319.8,213.2,316.6z"/>
		<path class="st5" d="M231.4,358.3c-0.7-0.7-1.8,0.2-1.4,1c0.4,0.7,0,1.7-0.3,2.4c-0.2,0.6-0.1,1.6-0.1,2.3
			c-0.1,1.6-0.4,3.2-0.1,4.8c0.2,0.9,1.6,0.9,1.8,0c0.4-2,0.5-4.1,0.6-6.1C232,361,232.8,359.8,231.4,358.3z"/>
		<path class="st5" d="M220.4,390.9c-0.8,0-1.2,1.2-0.4,1.5c-0.2-0.1-0.1-0.2-0.1,0.2c0,0.4,0,0.8,0,1.1c0,0.9-0.1,1.7-0.2,2.6
			c-0.1,1.4-0.5,3.1-0.2,4.5c0.2,0.9,1.6,0.9,1.8,0c0.5-1.9,0.5-4.1,0.6-6C222,393.7,222.2,390.8,220.4,390.9z"/>
		<path class="st5" d="M243.6,401.4c-0.8,3.1-1.1,6.6-0.6,9.8c0.1,0.9,1.7,0.9,1.8,0c0.5-3.1,0.2-6.1,0.9-9.2
			C246.1,400.6,244,400,243.6,401.4z"/>
		<path class="st5" d="M228,419c-0.1,2.8-0.5,5.6-0.3,8.5c0.1,1.1,1.6,1.1,1.7,0c0.2-2.8,0.5-5.6,0.5-8.5
			C229.8,417.8,228,417.8,228,419z"/>
		<path class="st5" d="M212,431.1c-0.1-1-1.5-0.6-1.6,0.2c-0.4,3.1,0.5,6.3-0.4,9.4c-0.3,0.9,1.2,1.6,1.6,0.7
			C213,438.3,212.5,434.5,212,431.1z"/>
		<path class="st5" d="M165,452c-1,0-1.2,1.3-0.5,1.8c0.9,0.7,0.6,3.2,0.6,4.2c-0.1,1.4-0.2,3-0.6,4.4c-0.3,1.1,1.2,1.6,1.7,0.7
			C167.4,461.1,168.7,452.1,165,452z"/>
		<path class="st5" d="M197.8,444.2c-0.1-0.9-1.6-0.9-1.8,0c-0.4,2.6-0.4,5.6,0,8.2c0.1,0.9,1.7,0.9,1.8,0
			C198.2,449.8,198.2,446.8,197.8,444.2z"/>
		<path class="st5" d="M182.8,467.9c-0.1-1.1-1.7-1.1-1.8,0c-0.2,3-0.3,6.2,0,9.2c0.1,1.1,1.7,1.1,1.8,0
			C183.1,474.2,183,471,182.8,467.9z"/>
		<path class="st5" d="M153.2,471.4c-0.1-1.2-1.8-1.2-1.8,0c-0.2,3.4-0.3,7,0,10.4c0.1,1.2,1.7,1.2,1.8,0
			C153.5,478.4,153.3,474.8,153.2,471.4z"/>
		<path class="st5" d="M170,482.6c-0.1-1-1.5-1-1.6,0c-0.3,3.4,0.3,6.8-0.8,10.2c-0.3,0.9,1.1,1.5,1.6,0.7
			C171,490.1,170.4,486.2,170,482.6z"/>
		<path class="st5" d="M153.5,499c-0.5-1-2.2-0.3-1.8,0.8c1.1,2.8,0,5.7,0,8.6c0,1.1,1.5,1.2,1.8,0.2
			C154.6,505.8,154.8,501.8,153.5,499z"/>
		<path class="st5" d="M181.3,505.5c-0.3-0.9-1.5-0.9-1.8,0c-0.4,1.3-0.4,2.8-0.5,4.1c-0.1,1.7-0.3,3.3-0.3,5c0,1.1,1.5,1.3,1.8,0.2
			c0.5-1.5,0.6-3.1,0.8-4.7C181.4,508.6,181.7,506.9,181.3,505.5z"/>
		<path class="st5" d="M164.4,515.7c-0.1,3.7-1,7.4-0.7,11.2c0.1,1.2,1.7,1.1,1.8,0c0.4-3.7,0.8-7.4,0.8-11.2
			C166.3,514.5,164.4,514.5,164.4,515.7z"/>
		<path class="st5" d="M148.5,525.3c0,2.7-0.5,5.4-0.2,8.1c0.1,1.2,1.7,1.2,1.8,0c0.3-2.7,0.5-5.4,0.5-8.1
			C150.6,524,148.5,524,148.5,525.3z"/>
		<path class="st5" d="M177.7,535.9c-0.3-1-1.7-0.7-1.7,0.2c-0.1,2.5-0.7,5.2-0.4,7.7c0.1,0.9,1.6,1.3,1.8,0.2
			C177.8,541.4,178.5,538.5,177.7,535.9z"/>
		<path class="st5" d="M164,547.3c0-1.2-1.9-1.2-1.9,0c-0.1,2.7-0.8,5.6-0.3,8.3c0.2,0.9,1.6,0.9,1.8,0
			C164.1,553,164.1,550,164,547.3z"/>
		<path class="st5" d="M144.1,551.1c-0.5-0.9-1.8-0.1-1.4,0.8c1.1,2.3,0.4,5.3,0.6,7.7c0.1,1.1,1.6,1.1,1.7,0
			C145.3,556.9,145.6,553.6,144.1,551.1z"/>
		<path class="st5" d="M199.8,476c-0.1-1.2-2-1.2-1.9,0c0.2,3-0.9,5.9-0.7,8.9c0.1,1.2,1.6,1.1,1.8,0
			C199.3,481.9,200.1,479,199.8,476z"/>
		<path class="st5" d="M187.9,419.9c-0.2-1.1-2-0.8-1.9,0.3c0.2,3-0.1,6.2,0.5,9.1c0.2,0.9,1.7,0.9,1.8,0
			C188.7,426.3,188.5,422.9,187.9,419.9z"/>
		<path class="st5" d="M196.2,388.8c-0.3-0.8-1.4-0.9-1.7,0c-0.7,2.6,0.5,5.5-0.4,8.1c-0.4,1.1,1.1,1.5,1.7,0.7
			C197.4,395.4,197.1,391.2,196.2,388.8z"/>
		<path class="st5" d="M392.7,323.1c-0.1-1.1-1.6-1.1-1.7,0c-0.6,5.4-0.9,11.1-0.4,16.6c0.1,1.1,1.7,1.1,1.8,0
			C392.8,334.3,393.2,328.6,392.7,323.1z"/>
		<path class="st5" d="M376.2,339.8c-0.1-0.5-0.7-0.8-1.2-0.7c-0.1,0-0.2,0.1-0.3,0.1c-0.4,0.1-0.7,0.5-0.7,0.9c0,0.1,0,0.2,0,0.3
			c0,0.3,0.1,0.5,0.4,0.7c0.1,1.9,0.2,3.7-0.1,5.7c-0.2,1.9-0.2,3.5,0.6,5.3c0.4,1,1.9,0.3,1.7-0.7c-0.5-2,0-4.1,0.2-6.1
			C376.9,343.4,376.6,341.7,376.2,339.8z"/>
		<path class="st5" d="M388.2,352.5c-0.3-1.3-2.1-0.7-2,0.5c0.5,4,0,8,0.5,11.9c0.1,0.9,1.6,0.8,1.7,0
			C389,360.9,389.1,356.5,388.2,352.5z"/>
		<path class="st5" d="M362.8,360.9c-0.1-1.3-2-1.3-2.1,0c-0.3,3.5-0.2,7.6,0.5,11c0.2,0.9,1.6,0.9,1.8,0
			C363.7,368.4,363.1,364.4,362.8,360.9z"/>
		<path class="st5" d="M357.2,335.7c0.1-1.8,0.3-3.6,0-5.4c-0.1-0.8-1.4-0.8-1.6,0c-0.8,3.7-1.7,9.3,0.9,12.4c0.6,0.7,1.9,0,1.6-0.9
			C357.4,339.7,357.1,337.8,357.2,335.7z"/>
		<path class="st5" d="M374.3,313.1c-0.1-1.3-2-1.3-2,0c-0.2,3.3-0.4,6.8,0.1,10c0.2,1.2,1.7,1.2,1.9,0
			C374.7,319.9,374.6,316.4,374.3,313.1z"/>
		<path class="st5" d="M341.1,352.9c-0.1-1.8,0.1-4.1-0.8-5.7c-0.4-0.6-1.4-0.6-1.7,0l0,0c0,0,0,0.1,0,0.1c0,0,0,0,0,0
			c-0.2,0.2-0.2,0.4-0.3,0.6c0,0.1,0,0.2,0,0.3c-0.3,1.3,0,2.7,0.1,4c0.2,2.6,0,5.3,0.1,7.9c0.1,1.1,1.4,1.2,1.8,0.2
			C341.3,358,341.3,355.4,341.1,352.9z"/>
		<path class="st5" d="M335.7,320.1c-0.1-1.2-1.7-1.2-1.8,0c-0.4,3.7-0.3,7.5,0,11.2c0.1,1.1,1.6,1.1,1.7,0
			C336,327.6,336.1,323.7,335.7,320.1z"/>
		<path class="st5" d="M323.7,338.5c-0.1-1-1.4-1-1.6,0c-0.4,3.1-0.3,6.5-0.1,9.6c0.1,1.1,1.7,1.1,1.7,0
			C324,345,324,341.7,323.7,338.5z"/>
		<path class="st5" d="M305.1,323.7c-0.2,1.3-0.6,2.4-0.6,3.7c0,1.4,0,2.8,0.2,4.2c0.1,1.2,1.7,1.2,1.8,0c0.1-1.2,0.2-2.4,0.2-3.7
			c0-1.4,0.2-2.7,0.2-4C306.8,322.9,305.3,322.7,305.1,323.7z"/>
		<path class="st5" d="M304.3,348.9c-0.1-1.3-1.9-1.3-2,0c-0.3,4.2-0.4,8.6,0.1,12.7c0.1,1.2,1.7,1.2,1.9,0
			C304.6,357.5,304.6,353.1,304.3,348.9z"/>
		<path class="st5" d="M283.5,337.9c-0.4-1.3-2.5-0.8-2.1,0.6c0.9,3.5-0.5,6.9,0.2,10.4c0.2,0.9,1.6,0.9,1.8,0
			C284.2,345.4,284.6,341.3,283.5,337.9z"/>
		<path class="st5" d="M275,322c-0.1-1.3-2-1.3-2.1,0c-0.1,2.4-0.1,4.9,0.1,7.3c0.1,1.2,1.7,1.2,1.8,0
			C275.1,326.9,275.1,324.4,275,322z"/>
		<path class="st5" d="M269.2,352.2c-0.6,4.2-1.2,8.8-0.8,13c0.1,1.2,1.7,1.2,1.9,0c0.3-2.2,0.4-4.4,0.5-6.7c0.1-2,0.4-4.1,0.3-6
			C271,351.4,269.4,351,269.2,352.2z"/>
		<path class="st5" d="M249.2,337.4c-0.1-1.3-1.9-1.3-2.1,0c-0.4,3.4,0.4,7.2-0.6,10.5c-0.3,1,1.2,1.6,1.7,0.7
			C249.9,345.6,249.6,340.8,249.2,337.4z"/>
		<path class="st5" d="M252.2,366.4c-0.2-1.1-1.9-0.8-1.9,0.3c0.1,3.7-0.8,7.5-0.3,11.2c0.1,1,1.7,1.4,1.8,0.3
			C252.3,374.2,252.7,370.3,252.2,366.4z"/>
		<path class="st5" d="M238.8,378.6c0-1.3-2-1.3-2,0c-0.1,3.5-0.9,7.2-0.3,10.6c0.2,0.9,1.6,0.9,1.8,0
			C239,385.9,238.9,382,238.8,378.6z"/>
		<path class="st5" d="M237.1,320.1c-0.1-0.9-1.5-1.3-1.7-0.2c-0.5,3.5-1.1,7.1-0.8,10.6c0.1,1.2,1.7,1.1,1.8,0
			C236.7,327.1,237.5,323.5,237.1,320.1z"/>
		<path class="st5" d="M292.3,303.9c-0.1-1.1-1.9-1.5-2-0.3c-0.3,2.1-0.6,4.3-0.3,6.4c0.1,0.9,1.6,1.4,1.8,0.2
			C292.1,308.2,292.6,306,292.3,303.9z"/>
		<path class="st5" d="M391.7,291.9c-0.1-1.3-1.9-1.3-2,0c-0.2,2.8-0.5,5.7-0.3,8.5c0.1,1.2,1.7,1.1,1.8,0
			C391.5,297.6,391.8,294.8,391.7,291.9z"/>
		<path class="st5" d="M404.3,372c0-1.1-1.7-1.1-1.8,0c-0.1,3.2,0,6.5,0.4,9.6c0.1,1.1,1.6,1.1,1.7,0
			C404.9,378.5,404.4,375.2,404.3,372z"/>
		<path class="st5" d="M377.5,379c0-1.3,0.1-2.3-0.8-3.3c-0.7-0.7-1.9,0.2-1.4,1.1c0.4,0.6,0.1,1.1,0.1,1.8c0,0.7,0,1.4,0,2.1
			c0.1,1.3,0.3,2.7,0.5,4c0.2,1.1,1.7,0.7,1.8-0.2C377.9,382.6,377.5,380.8,377.5,379z"/>
		<path class="st5" d="M390.9,392.1c-0.1-1.2-1.9-1.3-1.9,0c0,2,0.3,4,0.3,6c0,2.2-0.6,4.3-0.3,6.6c0.2,1,1.7,0.9,1.9,0
			C391.8,400.3,391.3,396.4,390.9,392.1z"/>
		<path class="st5" d="M320.8,362.4c-0.1,3.8-0.6,7.7-0.3,11.6c0.1,1.1,1.7,1.1,1.7,0c0.3-3.8,0.5-7.7,0.4-11.6
			C322.6,361.2,320.8,361.2,320.8,362.4z"/>
		<path class="st5" d="M289.2,371c-0.4-1.2-2.4-0.7-2,0.5c0.9,3.2-0.2,6.5-0.3,9.7c0,1,1.5,1.2,1.8,0.2
			C289.6,378.1,290.4,374.4,289.2,371z"/>
		<path class="st5" d="M268.6,388.5c-0.6-1-2-0.1-1.5,0.9c1.3,2.9-0.5,6.4-0.1,9.4c0.1,0.9,1.6,0.8,1.7,0
			C269.3,395.8,270.5,391.4,268.6,388.5z"/>
		<path class="st5" d="M306.9,382.1c-0.1-1.2-1.7-1.2-1.9,0c-0.3,3-0.6,6.6,0.1,9.5c0.2,0.9,1.6,0.9,1.8,0
			C307.5,388.6,307.2,385,306.9,382.1z"/>
		<path class="st5" d="M341,372.8c-0.9-0.5-1.7,0.6-1.1,1.4c0.2,0.3,0,1-0.1,1.3c-0.1,0.8-0.1,1.6-0.1,2.4c-0.1,1.7-0.2,3.2,0.3,4.8
			c0.3,1.1,1.9,0.8,1.9-0.3c0-2.2,0.2-4.4,0.2-6.5C342.1,374.7,342.3,373.5,341,372.8z"/>
		<path class="st5" d="M359.3,393.2c-0.1,3.4-0.7,7-0.3,10.4c0.1,1.2,1.7,1.2,1.8,0c0.4-3.4,0.5-7,0.4-10.4
			C361.2,392,359.3,392,359.3,393.2z"/>
		<path class="st5" d="M329.9,397.9c0-1.1-1.7-1.1-1.7,0c-0.1,2.9-0.2,5.9,0,8.9c0.1,1.1,1.6,1.1,1.7,0
			C330.1,403.8,330,400.8,329.9,397.9z"/>
		<path class="st5" d="M346.4,408.2c-0.4-1-2-0.3-1.7,0.7c0.7,3.3-0.6,6.4,0,9.6c0.2,0.9,1.6,0.9,1.8,0
			C347.2,415.3,347.8,411.3,346.4,408.2z"/>
		<path class="st5" d="M377.1,411c-0.8-0.7-2.1,0.2-1.5,1.2c1.5,2.3-0.3,5.7,0.3,8.2c0.2,0.9,1.6,0.9,1.8,0c0.5-1.7,0.6-3.5,0.6-5.2
			C378.4,413.7,378.2,412.1,377.1,411z"/>
		<path class="st5" d="M403.1,410.6c-0.1-1.1-1.6-1.1-1.7,0c-0.5,3.9-1,8.3-0.4,12.2c0.1,0.9,1.6,0.9,1.7,0
			C403.4,418.9,403.5,414.5,403.1,410.6z"/>
		<path class="st5" d="M391.5,431.6c-0.6-1.1-2.2-0.1-1.7,1c0.5,1.2-0.4,3.6-0.5,4.9c-0.2,1.8-0.5,3.6-0.7,5.4
			c-0.1,0.9,1.3,1.3,1.7,0.5c0.9-2.1,1.1-4.3,1.3-6.6C391.8,434.8,392.5,433.5,391.5,431.6z"/>
		<path class="st5" d="M364.6,428.3c-0.1-1.2-1.7-1.1-1.8,0c-0.5,3.6-1.7,7.4-1.2,11c0.1,0.9,1.7,0.9,1.9,0
			C364.1,435.9,364.9,431.8,364.6,428.3z"/>
		<path class="st5" d="M317.4,408.5c0,0,0.1-0.1,0.1-0.1c0,0,0-0.1,0.1-0.1c0.3-0.6,0-1.3-0.6-1.5c0,0,0,0,0,0
			c-0.4-0.1-1,0.1-1.2,0.5c-0.4,0.9-0.6,1.8-0.6,2.8c-0.1,2.3-0.8,4.4-0.5,6.7c0.1,1,1.7,1.4,1.8,0.2c0.3-1.7,0.6-3.4,0.9-5.2
			c0.1-0.9,0.1-1.7,0.2-2.6c0-0.2,0-0.4,0.1-0.6C317.6,408,317.7,408.2,317.4,408.5z"/>
		<path class="st5" d="M291.6,401.7c-0.1-1.3-2-1.3-2.1,0c-0.1,1.5-0.1,3.1-0.1,4.6c-0.1,2-0.7,3.8-0.5,5.8c0.1,0.9,1.6,1.3,1.8,0.2
			C291.4,408.7,291.8,405.4,291.6,401.7z"/>
		<path class="st5" d="M261,418.1c-0.6-1-2.3-0.3-1.9,0.8c1,2.8-0.2,5.6,0.5,8.4c0.2,0.9,1.6,0.9,1.8,0
			C262.1,424.6,262.4,420.7,261,418.1z"/>
		<path class="st5" d="M241.9,435.6c-0.1-1.4-2.1-1.4-2.1,0c-0.1,2.8,0.5,5.5-0.2,8.2c-0.3,1,1.1,1.6,1.7,0.7
			C242.9,441.9,242.2,438.5,241.9,435.6z"/>
		<path class="st5" d="M221.4,450.2c-0.1-1.2-1.8-1.2-1.9,0c-0.3,3.4-0.8,7-0.4,10.4c0.1,0.9,1.7,1.4,1.8,0.2
			C221.4,457.4,221.7,453.7,221.4,450.2z"/>
		<path class="st5" d="M208.1,493c-1-0.8-2.5,0.5-1.5,1.5c0.4,0.4,0,2.9-0.1,3.5c-0.1,1.5-0.2,3-0.5,4.4c-0.3,1.1,1.2,1.7,1.8,0.7
			c1-1.5,1-3.4,1.1-5.2C208.9,496.5,209.4,494,208.1,493z"/>
		<path class="st5" d="M197,513.8c-0.1-1.5,0.2-3.5-0.7-4.8c-0.7-1.1-2.3-0.1-1.7,1c0.6,1.1,0.2,3.3,0.2,4.5c0,1.7-0.2,3.4-0.3,5
			c-0.1,0.9,1.4,1.4,1.8,0.5C197.1,518.1,197.1,516,197,513.8z"/>
		<path class="st5" d="M194,536.9c-0.1-1.2-1.7-1.2-1.8,0c-0.4,3-0.8,6.2-0.4,9.2c0.1,1,1.7,1.4,1.9,0.3
			C194,543.3,194.3,540,194,536.9z"/>
		<path class="st5" d="M179.7,554.6c-0.1-1.1-1.6-1.1-1.7,0c-0.2,2.3-0.2,4.9,0.3,7.2c0.2,0.9,1.6,0.9,1.8,0
			C180.6,559.5,180,556.9,179.7,554.6z"/>
		<path class="st5" d="M217.9,526.9c0-1.2-1.9-1.2-1.9,0c-0.1,3-0.3,6.2,0.1,9.2c0.1,1.2,1.7,1.2,1.8,0
			C218.3,533.1,218,529.9,217.9,526.9z"/>
		<path class="st5" d="M225.1,489.4c-0.8-1-2.4-0.1-1.7,1c1.2,2.2-0.2,5.1,0.3,7.4c0.2,0.9,1.6,0.9,1.8,0
			C226.2,495.5,226.7,491.5,225.1,489.4z"/>
		<path class="st5" d="M209.9,465.6c0-1.3-2-1.3-2,0c0,3.2-0.1,6.7,0.5,9.9c0.2,0.9,1.6,0.9,1.8,0
			C210.8,472.3,210,468.9,209.9,465.6z"/>
		<path class="st5" d="M235.9,463.2c-0.5-1-2.3-0.3-1.9,0.8c1,2.8-0.8,6,0.9,8.7c0.6,1,1.9,0.3,1.7-0.7
			C236.4,469.1,237.2,465.9,235.9,463.2z"/>
		<path class="st5" d="M254.4,447.3c-0.1-0.8-1.5-0.8-1.7,0c-0.5,3-1.9,8.1,0.6,10.5c0.7,0.7,1.8,0,1.6-0.9
			C253.9,453.7,254.8,450.6,254.4,447.3z"/>
		<path class="st5" d="M276,427.3c-0.1-0.9-1.6-0.9-1.7,0c-0.4,2.9-0.6,6.4,0,9.3c0.2,0.9,1.6,0.9,1.8,0
			C276.6,433.7,276.4,430.2,276,427.3z"/>
		<path class="st5" d="M302.7,422.5c-0.1-1.3-1.9-1.3-2,0c-0.2,3.3-0.3,6.7,0.1,10c0.1,1.2,1.7,1.2,1.8,0
			C303,429.2,302.8,425.8,302.7,422.5z"/>
		<path class="st5" d="M331.5,424.8c-0.1-1.1-1.6-1.1-1.8,0c-0.4,3.3-0.9,7-0.4,10.3c0.1,0.9,1.6,0.9,1.8,0
			C331.6,431.8,331.8,428.1,331.5,424.8z"/>
		<path class="st5" d="M287.3,445.3c-0.4-1.3-2.4-0.7-2,0.6c0.9,3-0.1,5.9,0.1,9c0.1,1.2,1.6,1.1,1.8,0
			C287.6,451.6,288.4,448.5,287.3,445.3z"/>
		<path class="st5" d="M318.5,443.7c-0.1-1.3-1.8-1.3-2,0c-0.3,2.5-1.2,5.9,0.7,8c0.7,0.8,1.8,0,1.6-0.9
			C318.3,448.4,318.7,446.1,318.5,443.7z"/>
		<path class="st5" d="M350.1,443.3c-0.1-1.4-2-1.4-2.1,0c-0.2,3.5-0.8,7.3-0.3,10.8c0.1,1,1.8,1.5,1.9,0.3
			C350.2,450.7,350.3,446.9,350.1,443.3z"/>
		<path class="st5" d="M375.1,449.8c-0.1-1.3-1.8-1.2-1.9,0c-0.4,2.9-0.8,6.2-0.3,9.1c0.2,0.9,1.6,0.9,1.8,0
			C375.2,456.1,375.4,452.8,375.1,449.8z"/>
		<path class="st5" d="M400.4,456.4c-0.2,3.9-1.2,8-0.6,11.8c0.2,0.9,1.6,0.9,1.8,0c0.8-3.8,1.1-7.9,1-11.8
			C402.5,455,400.4,455,400.4,456.4z"/>
		<path class="st5" d="M386.1,471.4c-0.1,3.9-1.1,7.9-0.6,11.8c0.1,1,1.8,0.9,1.9,0c0.7-3.8,0.9-7.9,1-11.8
			C388.3,469.9,386.1,469.9,386.1,471.4z"/>
		<path class="st5" d="M361.2,466.4c-0.1-1.3-1.9-1.3-2,0c-0.2,3.1-0.6,6.2-0.8,9.2c0,0.9,1.4,1.4,1.8,0.5
			C361.6,473.2,361.5,469.6,361.2,466.4z"/>
		<path class="st5" d="M333.6,460.6c-0.1-1.4-2-1.4-2.1,0c-0.4,3.8-1.2,8-0.6,11.8c0.2,0.9,1.7,0.9,1.8,0
			C333.4,468.7,333.8,464.4,333.6,460.6z"/>
		<path class="st5" d="M301.4,457.5c-0.1,3-1.5,6.1-1,9.1c0.2,0.9,1.6,0.9,1.8,0c0.6-2.9,1.3-6.1,1.3-9.1
			C303.6,456.1,301.4,456.2,301.4,457.5z"/>
		<path class="st5" d="M267.1,461.4c-1,1.1-0.8,2.7-0.9,4.1c-0.1,2.3-0.5,4.6-0.1,6.9c0.1,1,1.7,0.9,1.9,0c0.3-1.6,0.4-3.1,0.5-4.7
			c0.1-1.6-0.3-3.8,0.4-5.3C269.2,461.5,267.7,460.7,267.1,461.4z"/>
		<path class="st5" d="M250.7,480c-0.4-1.3-2.3-0.8-2.1,0.6c0.6,3.3,0.7,6.7,1.3,10c0.2,0.9,1.7,0.9,1.8,0
			C252.3,487.1,251.7,483.3,250.7,480z"/>
		<path class="st5" d="M290.3,471.5c-0.4-1.2-2-0.7-1.8,0.5c0.6,3.9-0.4,7.8,0,11.7c0.1,1.2,1.7,1.2,1.8,0
			C290.8,479.7,291.7,475.4,290.3,471.5z"/>
		<path class="st5" d="M318.4,475.2c-0.8-0.5-1.5,0.3-1.4,1c0,0,0,0,0,0.1c0,0.1,0,0.2,0,0.3c0,0.3,0,0.7,0,1c0,0.9-0.1,1.8-0.2,2.7
			c-0.2,1.5-0.4,2.9-0.2,4.4c0.2,1,1.6,0.9,1.9,0c0.4-1.7,0.6-3.4,0.8-5.1C319.3,478.2,319.6,476,318.4,475.2z"/>
		<path class="st5" d="M346.6,480.7c-0.1-1.3-1.8-1.2-1.9,0c-0.3,3-0.6,6.2-0.3,9.2c0.1,1.2,1.7,1.1,1.8,0
			C346.4,486.9,346.8,483.7,346.6,480.7z"/>
		<path class="st5" d="M374.5,487.2c-0.1,2.8-0.6,5.6-0.2,8.3c0.1,0.9,1.6,0.9,1.8,0c0.5-2.7,0.6-5.6,0.6-8.3
			C376.7,485.8,374.6,485.8,374.5,487.2z"/>
		<path class="st5" d="M399.4,489.1c-0.1-1.4-2.1-1.4-2.2,0c-0.2,5-0.7,10-2.2,14.8c-0.3,1.1,1.2,1.7,1.8,0.8c1.4-2.4,1.8-5,2.1-7.7
			C399.4,494.2,399.7,491.9,399.4,489.1z"/>
		<path class="st5" d="M386.2,509.3c-0.7,3.1-0.6,6.2-1.4,9.3c-0.3,1,1.3,1.7,1.7,0.7c1.3-3,1.1-6.2,1.8-9.4
			C388.5,508.5,386.5,507.9,386.2,509.3z"/>
		<path class="st5" d="M357.8,500.7c-0.1-1.3-1.9-1.3-2,0c-0.3,3.6-1.2,7.2-1.1,10.8c0,1.1,1.6,1.3,1.9,0.3
			C357.5,508.3,358,504.3,357.8,500.7z"/>
		<path class="st5" d="M326.8,495.7c-0.1-1.1-1.7-1.1-1.7,0c-0.2,2.9,0.3,5.8-0.4,8.6c-0.3,1,1.1,1.6,1.7,0.7
			C328.1,502.3,327.1,498.6,326.8,495.7z"/>
		<path class="st5" d="M299.1,493c-0.1,3.6-1,7.2-1,10.8c0,1,1.6,1.3,1.8,0.2c0.8-3.6,1.3-7.3,1.3-11
			C301.2,491.6,299.1,491.6,299.1,493z"/>
		<path class="st5" d="M271.8,491.8c0-1.2-1.9-1.2-1.9,0c-0.1,3-0.2,6.1,0.5,9.1c0.2,1,1.8,0.8,1.8-0.2
			C272.1,497.7,272,494.8,271.8,491.8z"/>
		<path class="st5" d="M243.8,506.6c-0.4-1.3-2.4-0.8-2,0.6c1,3.7,0.8,7.5,1.2,11.3c0.1,1.2,1.7,1.2,1.9,0
			C245.3,514.5,245.1,510.3,243.8,506.6z"/>
		<path class="st5" d="M235.5,533.8c-0.1,3.2-0.6,6.4-0.3,9.6c0.1,1.2,1.7,1.2,1.9,0c0.4-3.2,0.6-6.4,0.5-9.6
			C237.6,532.4,235.6,532.4,235.5,533.8z"/>
		<path class="st5" d="M217.9,552.3c-0.1-1.2-1.8-1.2-1.9,0c-0.3,2.8-0.5,6,0,8.7c0.2,0.9,1.6,0.9,1.8,0
			C218.4,558.2,218.2,555.1,217.9,552.3z"/>
		<path class="st5" d="M226.9,511.5c-0.2,2.1-0.6,4.1-0.4,6.2c0.1,1.1,1.6,1.1,1.7,0c0.3-2,0.5-4.1,0.4-6.2
			C228.5,510.4,227,510.4,226.9,511.5z"/>
		<path class="st5" d="M263.1,518.8c0-1.4-2.1-1.4-2.1,0c-0.1,3.8-0.3,7.7,0.1,11.6c0.1,1.2,1.7,1.2,1.8,0
			C263.4,526.5,263.2,522.6,263.1,518.8z"/>
		<path class="st5" d="M252.4,552.1c0-2,0.1-4.1-0.2-6.2c-0.1-0.9-1.7-0.9-1.8,0c-0.3,2-0.2,4.1-0.2,6.2c0,2.3-0.2,4.7,0.2,7
			c0.2,0.9,1.7,0.9,1.8,0C252.6,556.8,252.4,554.4,252.4,552.1z"/>
		<path class="st5" d="M286.9,507.2c-0.1-1.3-2-1.3-2,0c-0.2,2.6-0.1,5.2-0.5,7.8c-0.2,1.8-0.2,3.4,0.7,5c0.6,1,2,0.3,1.8-0.7
			c-0.4-1.8-0.2-3.6,0.1-5.4C287.2,511.7,287.1,509.4,286.9,507.2z"/>
		<path class="st5" d="M318.7,513.4c-0.1-1-1.5-1-1.6,0c-0.2,3.8-0.7,7.7-0.1,11.4c0.1,0.9,1.6,0.9,1.7,0
			C319.3,521.1,318.9,517.2,318.7,513.4z"/>
		<path class="st5" d="M341.7,519.6c-0.2-1.3-2.4-1-2.2,0.3c0.3,3.3,0.1,6.6,0.6,9.9c0.2,1,1.8,1,1.9,0
			C342.5,526.5,342.1,523,341.7,519.6z"/>
		<path class="st5" d="M372.8,526.1c-0.1-1.3-2.2-1.4-2.1,0c0,1.3,0.3,2.5,0.3,3.8c-0.1,1.4-0.4,2.8-0.1,4.2c0.2,0.9,1.6,0.9,1.9,0
			c0.3-1.2,0.4-2.5,0.5-3.7C373.4,528.8,373,527.6,372.8,526.1z"/>
		<path class="st5" d="M396.9,533c-0.1,3.8-1.1,7.7-0.7,11.6c0.1,1,1.7,1.4,1.9,0.3c0.6-3.9,0.9-7.9,0.9-11.8
			C399,531.7,397,531.7,396.9,533z"/>
		<path class="st5" d="M384.5,548.1c0-1.5-2.3-1.5-2.3,0c0,3-0.4,6.2,0.2,9.1c0.2,0.9,1.7,0.9,1.9,0
			C384.9,554.3,384.5,551,384.5,548.1z"/>
		<path class="st5" d="M356,539.8c-0.1-0.8-1.5-0.8-1.6,0c-0.5,3.6-0.5,7.4-0.1,11c0.1,1.2,1.7,1.2,1.9,0
			C356.6,547.2,356.5,543.3,356,539.8z"/>
		<path class="st5" d="M327.6,535.7c-0.2-1.2-1.7-1.2-1.8,0c-0.3,2.6,0.1,5.5,0.4,8.1c0.1,1.2,1.7,1.2,1.8,0
			C328.2,541.2,328,538.4,327.6,535.7z"/>
		<path class="st5" d="M299.8,532.5c0-1.3,0.3-2.7-1.1-3.4c-0.8-0.4-2,0.5-1.4,1.4c0.3,0.4,0.1,0.9,0.1,1.4c-0.1,0.9,0,1.8,0,2.6
			c0,1.7,0,3.3,0.3,4.9c0.2,0.9,1.7,0.9,1.8,0C300,537.2,299.8,534.8,299.8,532.5z"/>
		<path class="st5" d="M277.3,543.1c-0.1-1.4-2.1-1.4-2.1,0c-0.2,4-0.4,8.3,0.5,12.2c0.3,1.1,1.9,0.8,1.9-0.3
			C277.8,551,277.5,547,277.3,543.1z"/>
		<path class="st5" d="M312.6,554.2c-0.1-0.6-0.3-1.3-0.4-2c0-0.3-0.1-0.5-0.1-0.8c0-0.4,0.3-0.5,0-0.3c0.9-0.5,0.3-1.8-0.7-1.6
			c-2.9,0.7-0.8,6.2-0.3,8c0.2,0.8,1.6,1,1.8,0C313.2,556.5,312.8,555.3,312.6,554.2z"/>
		<path class="st5" d="M338.7,553.4c-0.1-1.5-2.2-1.5-2.3,0c-0.2,2.7-1.1,6.5,0.8,8.8c0.7,0.8,1.9-0.1,1.7-1
			C338.2,558.7,338.8,556.1,338.7,553.4z"/>
		<path class="st5" d="M369.3,555.8c-0.1-1.3-1.9-1.3-2,0c-0.2,2.1-0.5,4.1-0.3,6.2c0.1,1.2,1.7,1.2,1.8,0
			C369.1,559.9,369.5,557.8,369.3,555.8z"/>
		<path d="M233.7,157.2c-14.9-4.4-30.3-1.8-43.5,6.1c-1.2,0.7-0.1,2.6,1.1,1.9c8.4-3.6,15.6-7.2,25.1-7.1c4.2,0,8.5,0,12.6,0.7
			c2.1,0.4,2.8,1.8,4.7,1.3C235.1,159.6,235.1,157.6,233.7,157.2z"/>
		<path d="M371.8,168.3c-6.3-2-11.5-4.5-18.2-5.3c-6.4-0.7-12.4,0.2-18.6,1.7c-0.5,0.1-0.7,0.5-0.8,1c0-0.1-0.1-0.1-0.1-0.2
			c-0.7,0.6,0.1,1.9,0.9,1.5c3.3-1.3,7.6-1.3,11.3-1.4c9.2-0.1,16,3,24.5,5.8C372.9,172.1,373.8,168.9,371.8,168.3z"/>
	</g>
	<g class="st2">
		<path class="st7" d="M270.1,564.2c0.1-4.7,0.6-33.3,0.5-37.9c-0.2-15.4-0.8-30.8-2-46.1c0,0.2-0.1,0.5-0.1,0.7
			c0.3-11.8-0.9-23.5-1.4-35.3c-0.6-12.2-1.2-24.4-1.9-36.6c-0.4-6.8-0.9-13.6-1.4-20.4c-0.8-10.2-1.3-20.5-1.9-30.7
			c-0.8-14.5-3-28.7-4.3-43.1c-0.2-2.8-0.5-9.4-4.7-7.9c-4.2,1.5-6.8,7.6-8.9,11.1c-5.5,9.1-11.3,18-16.9,26.9
			c-18.3-4.7-38.1-5-56.8-3.6c-10.8,0.8-21.6,2.4-32.3,3.7c-6.8,0.8-13.7,2.7-20.1,5.3c-4.7-3.7-9.3-7.6-14-11.4
			c-3.3-2.7-6.6-5.3-9.9-7.9c-2.4-1.8-6-7.4-9.6-5.9c-3.5,1.5-1.8,7.7-1.7,10.5c0.3,4.6,0.4,9.2,0.7,13.8c0.3,4.8,0.5,9.5,0.7,14.3
			c0,0.1,0,0.1,0,0.2c0,0,0,0.1,0,0.1c0.1,3.1,0.2,6.3,0.3,9.4c0.2,5.9,0.2,11.8,0.5,17.8c-0.5,13.5-0.1,27.1,0.2,40.7
			c0.5,25.7-0.6,51.3-2.3,77c-0.5,7.4-0.9,14.9-1.3,22.3c-0.2,4.4-0.6,32.8-0.7,37.2c24.5,0.9,48.9,1,73.5,1
			c11.7,0.6,23.4,2.3,35.1,2.3c27,0.3,53.9,0.3,80.8,0.2c-0.1-1.6-0.2-3.1-0.2-4.7C270.1,566.3,270.1,565.2,270.1,564.2z"/>
		<path class="st6" d="M223,437.7c-4.5-5.1-11.7-7.1-18.3-7.8c-13-1.3-24.3,10.1-29.9,21.4c-5.1-9.7-14.5-17.7-25.7-18.3
			c-13.2-0.7-26.7,5.6-29,19.7c-3.7,22.6,17.7,38.9,34.9,48.9c5.1,2.9,10.1,5.9,15.1,9.1c4,2.6,7.8,5.6,12.5,2.6
			c7.4-4.6,13.4-10.6,19.6-16.6c11.4-10.9,24.5-24.1,25.4-40.7C228,450.5,226.7,441.9,223,437.7z"/>
		<path d="M159.5,470.4c-1-1.3-2.3-2.1-3.8-1.2c-1.8,1.1-2.7,4.5-3.1,6.4c-0.2,1.2-0.5,2.4-0.7,3.5c-0.1,0.7-1.3,0.5-1.3-0.2
			c0-1.9-0.2-9.8-3.2-10.2c-0.3,0-0.5,0-0.8,0c-3.7,0.9-3.6,8.1-4,11.1c-0.1,0.8-1.2,0.8-1.3,0c-0.2-1.5-0.5-3-0.9-4.5
			c-0.9-3.4-3.2-9-7-4.6c-2.9,3.3-3.5,8.5-4,12.6c-0.5,4.2-0.7,8.5-1.2,12.7c-0.9,6.8-1.6,13.7-2.3,20.5c-1.1,11.5-2,46.9-2.3,58.4
			c9.5,0.1,18.9,0.1,28.4,0.1c0.5,1.3,2.7,1.4,3.1-0.2c0.6-2.2,0.3-4.8,0.4-7.2c0.2-5.9,0.6-35.7,0.9-41.7c0.5-11,1-21.8,2.1-32.7
			c0.6-6.4,3.3-12.7,2.4-19.2C161,473.1,160.4,471.6,159.5,470.4z"/>
		<path d="M220.1,513.9c-0.7-8.2-0.8-16.5-1.5-24.7c0.4-5.3,0.6-10.7-0.3-15.5c-0.4-2.3-1.1-4.9-2.5-6.7c-2.3-3-5.4-0.9-6.8,1.7
			c-0.9,1.7-1,4.3-1.4,6.1c-0.2,0.8-1.3,0.7-1.4-0.1c-0.4-1.8-0.9-3.8-1.9-5.4c-1.1-1.7-3.2-2.9-4.5-0.9c-1.6,2.4-1,6.4-1.3,9.2
			c-0.1,0.7-1.2,0.8-1.4,0.1c-0.5-2-1.3-4.2-2.6-5.8c-1.2-1.5-3.6-2.1-5.1-0.6c-3.1,3-1.2,10.6-1,14.4c0.8,12.9,2.8,25.7,3.9,38.6
			c1,11.6,1.7,47,2.6,58.6c0.2,0,0.5,0,0.7,0c8.3,0.1,16.6,0.1,24.8,0.1c0-0.7-0.1-1.4-0.1-2.1c0.9,1,2.9,0.7,2.8-1
			C222.4,565.9,221.3,527.9,220.1,513.9z"/>
		<path class="st8" d="M98.2,344.8c-1-0.8-1.9-1.7-2.8-2.6c-1.1-1.1-3-3.8-4.9-2.8c-0.9,0.5-1,1.7-1,2.6c-0.1,2,0.3,3.9,0.4,5.9
			c0.1,2.7,0.3,5.3,0.6,8c0.3,2.8-0.2,6.8,2.4,8.5c1.5,0.9,3.4-0.4,4.7-1.1c2.5-1.4,5.4-2.9,7.6-5c3.1-3,0.3-7.7-2.4-9.8
			C101.2,347.2,99.7,346,98.2,344.8z"/>
		<path class="st8" d="M252.9,328c-3.1-7.9-12.8,9.7-14.5,11.9c-1.5,1.9-3.2,5.5-1.8,7.9c1.6,2.8,4.4,3.6,7.3,4.6
			c2.8,1,5,2.4,7.4,0.2c2.3-2,1.7-8.8,1.9-11.6C253.4,336.9,254.4,332,252.9,328z"/>
		<path d="M141.4,388.9c-1.7-3.3-5.5-5.9-9.4-5.2c-2.8,0.5-7.3,3.4-6.7,6.7c0.2,0.9,1.5,0.8,1.7,0c0.8-2.6,3.7-4.2,6.3-4.4
			c3.3-0.2,4.3,3,6.6,4.4C140.9,390.9,141.9,389.8,141.4,388.9z"/>
		<path d="M209.1,377.7c-4.7-0.2-8.6,2.4-9.9,6.9c-0.3,1.1,1.5,2,2,0.8c2.6-6.2,9.4-7,13-1.3c0.4,0.7,1.4,0.5,1.6-0.2
			C217,380.6,211.8,377.8,209.1,377.7z"/>
		<path class="st6" d="M233.9,391.1c-1.4-3.6-5.4-4.7-8.8-3.4c-8.3,3.2-2.9,14.1,4.9,12C233.6,398.8,235.2,394.4,233.9,391.1z"/>
		<path class="st6" d="M120.3,394.3c-3.5-2.4-8.3-1.1-10.9,2c-3.2,3.9-1.3,8.4,2.9,10.2c2.6,1.4,5.9,1.3,8.5-0.8
			C124.2,403,124,396.9,120.3,394.3z"/>
		<path d="M174.7,394.5c-1.3-2.3-4.3-2.5-6.6-2c-2.8,0.6-4.6,4.1-1.7,6C168.8,399.9,176.9,398.6,174.7,394.5z"/>
		<path d="M170.6,397.4c-0.1-0.9-1.4-1-1.5,0c-0.3,5.5-2,10.3-7.1,13c-3,1.6-8.5,2.1-10.8-1.1c-1.4-1.9-0.7-5.4,1.5-6.3
			c1.6-0.7,6.1-1.1,4.7,3.3c-0.3,1,1.2,1.3,1.5,0.4c1.6-4-2.3-6.9-5.8-6c-4.2,1-6.7,6.2-3.6,9.9c3.5,4.3,10.2,3.4,14.6,1
			C168.8,409.2,171.1,402.6,170.6,397.4z"/>
		<path d="M184,396.6c-5,0.5-7.2,5.8-2.8,8.8c0.8,0.5,1.8-0.5,1.3-1.3c-3-4.3,1.4-5.8,4.7-5c4.7,1.2,2,7-0.7,8.6
			c-3,1.8-7.4,0.9-10.3-0.6c-3.4-1.7-4.7-6-5.5-9.5c-0.2-1-1.9-0.8-1.8,0.2c0.4,6.6,4.5,11.9,11.1,13.1c5.5,1,10.9-1.6,11.9-7.3
			C192.8,398.8,188.4,396.2,184,396.6z"/>
		<path class="st8" d="M102.2,538.5c-0.1-1.1-1.6-1.1-1.7,0c-0.1,1.8-0.4,3.5-0.3,5.3c0,1,1.3,1,1.6,0.2
			C102.5,542.3,102.3,540.3,102.2,538.5z"/>
		<path class="st8" d="M110.8,525.9c-0.2,1.5-0.6,3.2-0.4,4.8c0.1,1,1.4,1.2,1.7,0.2c0.5-1.6,0.5-3.4,0.7-5
			C113,524.7,111,524.7,110.8,525.9z"/>
		<path class="st8" d="M102,509.5c-0.2,1.6-0.4,3.3-0.3,4.9c0.1,1,1.5,1,1.6,0c0.2-1.6,0.2-3.3,0.4-4.9
			C103.7,508.4,102.1,508.5,102,509.5z"/>
		<path class="st8" d="M114.2,500.3c0-1.2-1.9-1.2-1.9,0c0,1.3,0.1,2.6-0.2,3.9c-0.2,0.9,1,1.4,1.5,0.6
			C114.4,503.4,114.2,501.8,114.2,500.3z"/>
		<path class="st8" d="M103.8,480.3c-0.2,1.6-0.5,3.2-0.2,4.8c0.1,0.8,1.4,0.8,1.6,0c0.3-1.6,0.3-3.2,0.5-4.8
			C105.8,479.1,104,479.1,103.8,480.3z"/>
		<path class="st8" d="M115.4,474c-0.1-0.8-1.4-1.1-1.5-0.2c-0.2,1.7-0.6,3.4-0.9,5.1c-0.2,0.8,1.1,1.5,1.4,0.6
			C115.2,477.8,115.6,475.8,115.4,474z"/>
		<path class="st8" d="M92,523.4c-0.2,1.2-0.3,2.4-0.4,3.6c-0.1,0.7-0.3,1.5-0.3,2.1c0,0.7,0.1,1.4,0,2.1c-0.2,0.9,1,1.5,1.5,0.6
			c0.6-1.2,0.4-2.5,0.5-3.8c0.2-1.4,0.4-3,0.2-4.4C93.4,522.8,92.1,522.5,92,523.4z"/>
		<path class="st8" d="M89.4,502.4c-0.3-1-1.8-0.6-1.5,0.4c0.4,1.7,0,3.4,0.1,5.1c0.1,0.8,1.4,1.2,1.6,0.2
			C89.9,506.2,90,504.2,89.4,502.4z"/>
		<path class="st8" d="M99.2,492c0-1-1.5-1-1.6,0c-0.1,1.9-0.4,3.8-0.1,5.7c0.1,0.8,1.4,0.7,1.5,0C99.3,495.8,99.2,493.9,99.2,492z"
			/>
		<path class="st8" d="M92.4,470.1c-0.1-1-1.4-1-1.5,0c-0.2,1.9-0.4,3.8-0.4,5.7c0,0.9,1.4,1.1,1.6,0.2
			C92.5,474,92.6,472,92.4,470.1z"/>
		<path class="st8" d="M91.2,543.6c0-1-1.6-1-1.6,0c0,1.8-0.1,3.5,0,5.3c0.1,1,1.5,1,1.6,0C91.4,547.2,91.3,545.4,91.2,543.6z"/>
		<path class="st8" d="M103.5,552.8c-0.2-0.7-1.3-0.7-1.4,0c-0.2,1.1-0.2,2.2-0.4,3.2c-0.1,0.5-0.1,1.1-0.2,1.6
			c-0.1,0.6,0.1,1.1,0,1.6c-0.3,0.9,1,1.4,1.5,0.6c0.5-0.9,0.5-1.9,0.6-2.9C103.7,555.6,103.8,554.2,103.5,552.8z"/>
		<path class="st8" d="M92.2,558.1c-0.1-1.1-1.6-1.1-1.7,0c-0.1,1.6-0.2,3.3,0.1,5c0.1,0.8,1.5,0.8,1.6,0
			C92.3,561.5,92.3,559.8,92.2,558.1z"/>
		<path class="st8" d="M118.1,540.1c-0.1-1-1.5-1-1.6,0c-0.1,1.7-0.4,3.4-0.2,5.1c0.1,1.1,1.5,1,1.6,0
			C118.2,543.5,118.2,541.8,118.1,540.1z"/>
		<path class="st8" d="M121.2,509.9c-0.1-1-1.4-1-1.5,0c-0.1,1.5-0.2,3-0.5,4.6c-0.2,0.8,1.1,1.5,1.5,0.6
			C121.4,513.4,121.4,511.6,121.2,509.9z"/>
		<path class="st8" d="M102.1,522.9c-0.1-1-1.4-0.9-1.5,0c-0.2,2-0.4,4-0.2,6c0.1,1,1.5,1,1.6,0C102.2,527,102.3,524.9,102.1,522.9z
			"/>
		<path class="st8" d="M119.3,485.8c-0.4,0.9-0.5,1.8-0.6,2.7c-0.2,1.5-0.6,3-0.4,4.6c0.1,0.8,1.4,1.2,1.6,0.2
			c0.2-1.2,0.3-2.3,0.5-3.5c0.2-1.1,0.1-2.3,0.4-3.4C121,485.5,119.7,484.9,119.3,485.8z"/>
		<path class="st8" d="M102,461.3c-0.5-0.9-2-0.3-1.6,0.7c0.3,0.8,0,1.8-0.1,2.6c-0.1,1.1,0,2.1-0.1,3.2c-0.1,1,1.3,1,1.7,0.2
			c0.5-1.2,0.4-2.6,0.5-3.9C102.4,463.1,102.5,462.2,102,461.3z"/>
		<path class="st8" d="M88.5,484.4c-0.5,1.3-0.6,3.1-0.4,4.4c0.1,0.8,1.4,1.2,1.6,0.2c0.2-1.4,0-2.9,0.3-4.3
			C90.1,483.8,88.8,483.5,88.5,484.4z"/>
		<path class="st8" d="M165.6,519.9c-0.1-1.2-2-1.2-1.9,0c0.1,1.4-0.3,2.8-0.1,4.2c0.1,0.9,1.5,1.3,1.7,0.2
			C165.6,522.9,165.8,521.4,165.6,519.9z"/>
		<path class="st8" d="M178.9,526.3c0.1-1-1.5-1-1.6,0c-0.1,1.5,0.2,3.1-0.3,4.6c-0.3,0.8,1,1.3,1.4,0.6
			C179.4,529.9,178.8,528,178.9,526.3z"/>
		<path class="st8" d="M169.1,537.3c0.1-0.8-0.3-2,0-2.7c0.3-0.7-0.8-1.3-1.2-0.7c-0.6,0.7-0.6,1.5-0.6,2.5c0,1.6-0.4,3.1,0.1,4.6
			c0.3,0.8,1.7,0.7,1.6-0.2C169,539.6,169,538.5,169.1,537.3z"/>
		<path class="st8" d="M184.4,543.3c0.3-1-1.2-1.4-1.6-0.4c-0.3,0.9-0.4,1.9-0.2,2.8c0.2,1.2,0,2.5,0.1,3.7c0.1,1.1,1.5,1.1,1.6,0
			c0.1-1,0.1-2,0.1-3.1C184.5,545.3,184.1,544.4,184.4,543.3z"/>
		<path class="st8" d="M161,552c0.1-1-1.2-1.4-1.5-0.4c-0.4,1.6-0.5,3.2-0.2,4.8c0.1,1,1.5,1.1,1.6,0
			C161.1,554.9,160.8,553.4,161,552z"/>
		<path class="st8" d="M176.4,552.3c0.3-1-1.3-1.4-1.5-0.4c-0.4,1.5,0,2.9,0.2,4.5c0.1,1,1.5,1,1.6,0
			C176.6,555,176,553.7,176.4,552.3z"/>
		<path class="st8" d="M168.2,560.4c0.2-0.9-1.2-1.3-1.4-0.4c-0.5,1.6-0.4,3.8,0.1,5.4c0.3,1,1.7,0.6,1.5-0.4
			C168.2,563.7,168,561.8,168.2,560.4z"/>
		<path class="st8" d="M186.3,560.6c-0.1-1-1.4-1-1.5,0c-0.2,1.8-0.3,3.8-0.2,5.7c0.1,0.9,1.3,1.1,1.6,0.2
			C186.6,564.6,186.5,562.5,186.3,560.6z"/>
		<path class="st8" d="M115.5,556.3c-0.1-1.1-1.7-1.1-1.7,0c0,1.8-0.1,3.7,0.3,5.5c0.1,0.8,1.5,0.8,1.6,0
			C115.9,560,115.6,558.2,115.5,556.3z"/>
		<path class="st8" d="M187.4,518c-0.1-0.8-1.4-0.8-1.5,0c-0.3,1.8-0.7,4.8,0.4,6.3c0.5,0.7,1.8,0.3,1.5-0.6
			C187.3,521.8,187.7,519.8,187.4,518z"/>
		<path class="st8" d="M227.1,524.2c-0.1-1.1-1.6-1.1-1.7,0c-0.1,1.7,0,3.5,0.3,5.2c0.1,0.8,1.5,0.8,1.6,0
			C227.4,527.6,227.3,525.9,227.1,524.2z"/>
		<path class="st8" d="M245.1,523.3c-0.1-0.9-1.4-0.9-1.4,0c-0.1,1.8-0.1,3.7,0.3,5.5c0.2,0.9,1.5,0.7,1.5-0.2
			C245.5,526.8,245.3,525,245.1,523.3z"/>
		<path class="st8" d="M265.5,522.1c-0.1-1-1.5-1-1.5,0c-0.2,2.3-0.4,4.8,0,7.1c0.1,0.8,1.4,0.8,1.5,0
			C265.9,526.9,265.7,524.3,265.5,522.1z"/>
		<path class="st8" d="M254.6,508.4c0-1-1.6-1-1.6,0c-0.1,2.6-0.4,5.3,0,7.8c0.1,0.8,1.5,0.8,1.6,0C255,513.7,254.7,511,254.6,508.4
			z"/>
		<path class="st8" d="M233.5,512.3c-0.1-1.1-0.2-2.2-0.9-3c-0.6-0.7-1.7,0.2-1.2,1c0.4,0.7,0.3,2.3,0.4,3.2
			c0.1,1.3,0.1,2.6,0.2,3.9c0.1,1,1.5,1,1.6,0C233.7,515.6,233.7,514,233.5,512.3z"/>
		<path class="st8" d="M236.9,534.8c-0.1-1.1-1.6-1.1-1.7,0c-0.2,2.1,0,4.4,0.2,6.5c0.1,1,1.5,1,1.6,0
			C237.3,539.2,237.1,536.9,236.9,534.8z"/>
		<path class="st8" d="M254.6,535.3c-0.1,1.6,0.1,3.2-0.3,4.8c-0.2,0.9,1.2,1.3,1.4,0.4c0.5-1.7,0.3-3.4,0.4-5.1
			C256.2,534.3,254.7,534.3,254.6,535.3z"/>
		<path class="st8" d="M243.8,547.3c-0.1-0.4-0.6-0.8-1-0.6c0,0-0.1,0-0.1,0.1c-0.3,0.1-0.6,0.4-0.6,0.8c0,0.1,0,0.1,0,0.2
			c0,0.1,0.1,0.2,0.1,0.2c-0.1,2.4-0.8,4.8-0.8,7.2c0,0.9,1.3,1.1,1.6,0.2C243.6,552.8,244.7,549.8,243.8,547.3z"/>
		<path class="st8" d="M226,549.5c-0.2,1.9-0.5,3.8-0.3,5.7c0.1,0.8,1.5,1.2,1.6,0.2c0.3-1.9,0.3-3.9,0.5-5.9
			C227.9,548.3,226.1,548.3,226,549.5z"/>
		<path class="st8" d="M261.5,548.8c-0.4,0.9-0.5,1.7-0.4,2.7c0.1,1.3,0,2.6,0.2,3.8c0.2,0.8,1.4,0.8,1.6,0c0.2-0.9,0.2-1.8,0.2-2.7
			c0-0.9-0.4-2,0-2.9C263.6,548.7,262,547.7,261.5,548.8z"/>
		<path class="st8" d="M254,559c0.3-0.9-1.1-1.5-1.5-0.6c-0.4,0.9-0.6,1.9-0.6,2.9c0,1.4-0.3,2.9,0,4.3c0.2,0.8,1.4,0.8,1.6,0
			C254.1,563.5,253.4,561.1,254,559z"/>
		<path class="st8" d="M233.9,558.3c-0.2-0.9-1.5-0.7-1.6,0.2c-0.1,1.8-0.1,3.7,0.2,5.5c0.1,0.8,1.5,0.8,1.6,0
			C234.4,562.1,234.3,560.1,233.9,558.3z"/>
		<path class="st8" d="M243.1,497.3c-0.1-1.1-1.6-1.1-1.7,0c-0.1,2.1-0.2,4.5,0.4,6.6c0.3,1,1.6,0.7,1.7-0.2
			C243.7,501.6,243.2,499.4,243.1,497.3z"/>
		<path class="st8" d="M262,491.3c0-1-1.6-1-1.6,0c0,1.6-0.3,3.2-0.2,4.8c0.1,0.9,1.4,1.2,1.6,0.2C262.3,494.6,262.1,493,262,491.3z
			"/>
		<path class="st8" d="M226.5,492.3c-0.1-0.8-1.5-0.8-1.6,0c-0.3,2-0.4,4.3,0,6.3c0.2,0.8,1.5,0.8,1.6,0
			C226.9,496.6,226.7,494.3,226.5,492.3z"/>
		<path class="st8" d="M233.5,480.9c0,1.8-0.3,3.7-0.1,5.5c0.1,1,1.4,1,1.6,0c0.2-1.8,0.2-3.7,0.2-5.5
			C235.2,479.8,233.5,479.8,233.5,480.9z"/>
		<path class="st8" d="M251.7,478.2c-0.1-1-1.4-1-1.5,0c-0.1,1.9-0.1,3.8,0.1,5.7c0.1,1,1.5,1,1.6,0
			C252.1,482,251.8,480.1,251.7,478.2z"/>
		<path class="st8" d="M241.1,463.4c0-1.2-1.8-1.2-1.8,0c0,2.1,0,4.2,0.3,6.2c0.1,0.8,1.4,0.8,1.6,0
			C241.4,467.5,241.1,465.4,241.1,463.4z"/>
		<path class="st8" d="M257.2,461.8c-0.2-1.5,0-3.1-0.1-4.6c0-1.2-1.8-1.2-1.8,0c0,1.2-0.1,2.5-0.1,3.7c0,1.1,0.6,2.5,0.2,3.5
			c-0.3,0.8,1,1.3,1.4,0.6C257.5,463.9,257.4,462.9,257.2,461.8z"/>
		<path class="st8" d="M227,476.4c-0.1-1.1-1.5-1-1.6,0c-0.1,1.5-0.4,3.1-0.2,4.6c0.1,0.8,1.5,1.2,1.6,0.2
			C227,479.7,227.1,478,227,476.4z"/>
		<path class="st8" d="M245.9,449c0-1-1.5-1-1.5,0c-0.1,1.7-0.2,3.4,0,5.1c0.1,1,1.5,1,1.6,0C246.1,452.5,245.9,450.7,245.9,449z"/>
		<path class="st8" d="M234.9,445.6c0-1.2,0.1-2.3-0.4-3.4c-0.4-0.8-1.9-0.2-1.5,0.6c0.5,1.1,0,2.5,0,3.7c0,1.3,0.1,2.6,0.3,3.9
			c0.1,1,1.5,0.6,1.6-0.2C235.1,448.7,234.9,447.2,234.9,445.6z"/>
		<path class="st8" d="M256.5,431.9c-0.1-1-1.6-1.1-1.6,0c-0.2,2.2,0.2,4.5,0.4,6.7c0.1,1,1.5,1,1.5,0
			C257,436.4,256.8,434.1,256.5,431.9z"/>
		<path class="st8" d="M112.6,446.2c0-0.4-0.3-0.8-0.8-0.8c-0.1,0-0.1,0-0.2,0c-0.5,0-0.8,0.3-0.9,0.7c-0.3,0.9-0.1,2-0.2,2.9
			c0,1.4-0.1,2.8,0,4.2c0.1,0.9,1.5,1.2,1.7,0.2C112.8,451.1,112.7,448.6,112.6,446.2z"/>
		<path class="st8" d="M92.6,437.2c-0.1-1.1-1.9-1.2-1.8,0c0.1,2.3,0.3,4.6,0.6,6.9c0.1,1.1,1.7,1.2,1.8,0
			C93.3,441.8,92.8,439.5,92.6,437.2z"/>
	</g>
	<g class="st2">
		<g>
			<path class="st6" d="M502.8,448.8c-2-0.9-4,0.6-5.2,2.3c-0.4,0.3-0.7,0.6-1.1,1c0.1-2.4-0.4-4.6-2.7-5.5c-2.6-1-4.5,1-5.9,3.4
				c-0.4-1.9-1.1-3.6-2.7-4.5c-4.1-2.3-6.8,2.9-7.8,6c-1.5,4.7-1.6,9.7-4.2,14c-2.3,3.8-6.1,6.6-10,8.8c-0.9-8.2-1.8-16.4-3.2-24.5
				c-1.9-11-4.8-21.7-7.4-32.5c-2.5-9.9-5.2-19.9-10.2-28.9c-0.4-0.8-1.8-1.3-2.3-0.3c-6.3,10.4-13.8,21.6-15.8,33.8
				c-17,0-34,2-50.5,6.1c-0.7,0.2-4.6-6.6-5.1-7.3c-1.6-2.5-3.3-5-4.9-7.5c-1.6-2.5-3.3-4.9-5.1-7.3c-1.5-2-3.4-6.3-6-7
				c-3.3-0.8-3,17.1-3,19.1c0,1.6,0,3.2-0.2,4.9c-0.3,2.7-0.5,5.4-0.6,8.1c-0.5,10.6-0.5,21.2-0.7,31.8c-0.1,6.7-0.3,13.3-0.5,20
				c-2.4-1.5-4.6-3.3-6.3-5.7c-1.3-1.9-2.2-4-3.1-6.1c-1.2-2.6-1.1-5.8-1.7-8.6c-0.8-3.5-3.9-8.4-8.1-5.7c-1.3,0.8-1.8,2.3-1.9,4
				c-1.5-2.1-3.6-3.6-6.1-2.7c-2,0.7-2.6,2.8-2.5,5.2c-0.9-1.1-2.1-1.8-3.3-1.9c-0.3-0.1-0.6-0.1-0.9,0c-1.9,0.3-3.5,1.9-3.3,4.8
				c0.7,8.5,5.8,16.3,10.3,23.3c3.1,4.8,6.7,9,11.2,12.6c4.5,3.5,9.6,6.1,14.9,8.3c0,0,0.1,0.1,0.1,0.1c-0.5,15-1.8,30-2.3,45
				c-0.1,4.4-0.3,8.8-0.5,13.2c0,0.2,0,0.3,0,0.5c0,0,0,0.1,0,0.1c-0.1,1.3,1.5,1.9,2.3,1.2c9.5-0.3,19.1,1.7,28.5,0.4
				c10.1-1.4,20.1,3.3,30.2,2c19-2.5,38.4,0.7,57.3-2.7c0.6,0.8,2.3,0.8,2.5-0.6c1.8-10.5,1.8-35.9,1.7-46.6
				c0-1.7-1.2-19.7-0.4-19.9c12.4-3.4,21.4-12.8,28.4-23.1c4.3-6.4,9.7-13.2,11.2-20.9C506.8,455.2,507,450.6,502.8,448.8z"/>
			<path class="st9" d="M405.3,473.7c-1.3-1.1-1.9-3.5-3.6-4.1c-0.8-0.3-1.5,0-1.9,0.8c-0.3,0.6-0.4,1.3-0.4,1.9
				c-0.8,0.4-1.4,1.2-1.8,2.1c-0.7-0.2-1.5,0.3-1.4,1.2c0.2,2,1.3,3.9,3.3,4.3c2.7,0.6,4.8-2.5,6.1-4.2
				C406.1,475.1,405.9,474.2,405.3,473.7z"/>
			<path class="st9" d="M406.8,572.1c13.3-2.3,26.6,0.8,40,0.6c-1.2-12-3.8-43.4-8.1-50.4c-6.3-10.2-16.6-14.4-28.2-14.8
				c-18.8-0.6-35.1,11.7-42.9,28.3c-2.5,5.3-4.3,11-5,16.8c-0.7,5.6-0.3,11.3-0.8,16.9C376.6,566.8,390.9,574.8,406.8,572.1z"/>
		</g>
		<path class="st9" d="M439.1,402.1c-2.7,2-3.7,5.4-4.7,8.5c-1.1,3.4-3.2,6.7-2.8,10.5c0.2,2.2,3.3,1.9,4.8,1.7
			c2.3-0.2,6.7-0.1,8.6-1.7c0.7-0.6,0.6-1.6,0.5-2.4c-0.1-2.3-0.2-4.6-0.5-6.9C444.7,410.3,443,399.3,439.1,402.1z"/>
		<path class="st9" d="M365,423.1c-1.6-2.6-5.1-10.7-9.1-10.3c-2.7,0.2-2.6,4.7-2.6,6.5c0,2.5,0.2,5.1,0.4,7.6
			c0.2,2.1,0.1,4.5,0.9,6.4c0.9,2,3.3,1.9,5,1.3c2.3-0.9,5.8-2.5,7-4.8C367.9,427.3,366.3,425.1,365,423.1z"/>
		<path d="M399.9,467c0,2.6-1.9,5.3-3.9,6.7c-2.8,2.1-5.8,1.7-8.5-0.2c-0.6-0.4-1.3,0.2-1.1,0.8c1.5,3.6,6.1,3.5,9.2,2.3
			c3.8-1.5,6.6-5.8,6.5-9.9C402.1,465.2,399.9,465.5,399.9,467z"/>
		<path d="M414.9,469.3c-1.1,4.1-7.5,4.9-10.1,2.3c-1.3-1.3-1.5-2.9-1.9-4.6c-0.2-0.8-0.2-1.4-0.9-1.9c-0.7-0.5-1.9,0-1.7,1
			c1,3.7,1.6,8.7,6.5,9.4c4,0.6,9.3-1.6,10.1-6C417.1,468.3,415.2,468.1,414.9,469.3z"/>
		<path d="M405.7,461.2c-1.1-1.5-3.5-1.8-5.2-1.7c-3.1,0.2-7.6,4.9-4.3,7.6c1,0.8,2.3,1.2,3.7,1.1c2.2,0.2,4.6-0.7,5.9-2.3
			C406.9,464.4,406.7,462.5,405.7,461.2z"/>
		<path d="M368.7,451.2c-1.9,0.2-2.9,1.5-3.8,3c-0.8,1.4-2,3.1-1.9,4.8c0,0.8,1.4,1,1.6,0.2c0.6-1.9,1.7-4.2,3.2-5.5
			c2.3-2.1,3.8,2.4,4,3.9c0.2,1.5,2.6,1.2,2.3-0.3C373.6,454.8,371.9,450.9,368.7,451.2z"/>
		<path d="M434,448c-1-1.7-2.5-2.9-4.5-3.2c-4.1-0.7-5.9,4.2-5.8,7.5c0,0.8,1.4,1,1.6,0.2c0.6-1.9,0.4-4.4,2.4-5.3
			c2.9-1.4,4.7,2.7,5.4,4.7c0.3,0.8,1.3,0.9,1.9,0.5C436.4,451.5,434.5,448.9,434,448z"/>
		<path class="st9" d="M330.9,472.9c-2.3-1.8-5.7-2.4-8.4,0.4c-2.9,3-2.3,7.7,1.4,9.7C329.8,486.2,336.6,477.6,330.9,472.9z"/>
		<path class="st9" d="M491,462.6c-5.2-6.3-16.1,2.7-9.6,8c1.8,1.5,5.7,2,7.9,1.1C492.9,470.1,493.4,465.4,491,462.6z"/>
		<path class="st9" d="M484.8,452.4c-1.4-2.5-3.7-1.1-4.5,1.1c-1.1,2.8,2,6.1,4.4,3.1C485.6,455.5,485.5,453.6,484.8,452.4z"/>
		<path class="st9" d="M492.3,451.8c-0.1-0.1-0.2-0.1-0.3-0.2c-6-3-4.6,11.8,0.8,6.1C494.1,456.2,494.1,453,492.3,451.8z"/>
		<path class="st9" d="M502.9,456.7c-0.5-2.1-2.8-2.5-4.3-1.2c-2,1.1-3.4,5.3-0.3,5.9C500.6,461.9,503.4,459,502.9,456.7z"/>
		<path class="st9" d="M314,466.5c-4.3,3.2,3.8,8.3,4.3,3.6C318.6,468.1,316.3,464.4,314,466.5z"/>
		<path class="st9" d="M324.4,463.2c-2.7-3.6-6.5,2.4-2.8,4.8c1.3,0.8,2.8,0,3.3-1.3C325.3,465.6,325,464.1,324.4,463.2z"/>
		<path class="st9" d="M332.9,460.5c-3.4-3-6.4,4.9-1.7,5.8c1.4,0.3,2.3-1.1,2.7-2.2C334.5,462.7,334,461.4,332.9,460.5z"/>
		<path class="st9" d="M356.6,466.2c-0.7,0.4-1.4,1-1.8,1.9c-2,3.8,0.9,8.8,5.4,8.1c2.9-0.5,4.7-3.1,4.3-6
			C364,466.6,359.6,464.6,356.6,466.2z"/>
		<path class="st9" d="M449.4,456.7c-2.4-2.5-6.4-2.4-8.9-0.1c-4.8,4.5,0.8,11.5,6.5,9.9C450.6,465.5,451.8,459.2,449.4,456.7z"/>
		<g>
			<path class="st9" d="M391.6,440.4c1-5.4,2-10.9,2.8-16.4c-0.8,0.1-1.6,0.2-2.4,0.3c-0.4,1.8-0.8,3.5-1.2,5.3
				c-0.8,3.5-1.7,7.2-0.9,10.7C390.1,441.4,391.4,441.4,391.6,440.4z"/>
			<path class="st9" d="M384,425.8c-0.5,1.7-0.8,3.4-1.2,5.1c-0.8,3.5-2.2,7.1-1.7,10.7c0.1,1,1.5,0.9,1.7,0c0.5-3.1,1.4-6.1,2-9.2
				c0.5-2.2,0.8-4.7,1.4-7.1C385.6,425.5,384.8,425.6,384,425.8z"/>
			<path class="st9" d="M400.7,441c1.7-5.8,2.3-12,3.1-18.1c-0.8,0.1-1.6,0.2-2.5,0.3c-0.5,2.6-1,5.2-1.4,7.8
				c-0.5,3.2-1.4,6.6-0.8,9.8C399.2,441.6,400.5,441.9,400.7,441z"/>
			<path class="st9" d="M410.7,438.8c1-3,1.5-6.4,2-9.5c0.4-2.4,0.9-4.7,1.5-7.1c-0.8,0-1.6,0.1-2.3,0.1c-0.6,2.2-1.2,4.4-1.7,6.7
				c-0.7,2.9-2.2,6.9-1.1,9.8C409.3,439.5,410.4,439.5,410.7,438.8z"/>
		</g>
		<path class="st9" d="M453.6,543.5c-0.3-1.3-1.7-0.6-1.6,0.2l0,0c0.1,1.7,0.4,3.4,0.5,5c0.1,0.9,1.3,0.8,1.5,0
			C454.4,547.1,454,545.2,453.6,543.5z"/>
		<path class="st9" d="M458.9,536.2c-0.1,1.9-0.4,3.9-0.4,5.8c0,0.8,1.1,1.2,1.4,0.4c0.8-1.9,0.4-4.2,0.3-6.2
			C460.2,535.4,458.9,535.4,458.9,536.2z"/>
		<path class="st9" d="M452.4,527.3c-0.2-0.9-1.5-0.8-1.5,0.2c0.1,2,0.3,4,0.8,5.9c0.2,0.9,1.5,0.8,1.5-0.2
			C453.2,531.2,452.9,529.2,452.4,527.3z"/>
		<path class="st9" d="M461,517.1c-0.2-0.9-1.4-0.7-1.4,0.2c0.1,1.8,0.3,3.5,0.1,5.3c-0.1,0.8,1.1,1.2,1.4,0.4
			C461.7,521.1,461.4,518.9,461,517.1z"/>
		<path class="st9" d="M452,511.9c0.1,1,0.3,2,0.4,3c0.1,0.9,1.5,0.7,1.4-0.2c-0.1-1-0.3-2-0.4-3.1
			C453.2,510.8,451.8,510.9,452,511.9z"/>
		<path class="st9" d="M441.8,513.5c-0.2-0.9-1.5-0.7-1.3,0.2c0.3,2.3,1.2,4.4,1.7,6.6c0.2,0.9,1.5,0.7,1.4-0.2
			C443.5,517.8,442.3,515.7,441.8,513.5z"/>
		<path class="st9" d="M458.5,503.2c-0.3-0.9-1.6-0.4-1.5,0.4c0.1,1.3,0.6,2.5,0.3,3.7c-0.2,0.9,1.1,1.1,1.5,0.4
			C459.5,506.3,458.9,504.7,458.5,503.2z"/>
		<path class="st9" d="M444.4,501.3c0.1-0.9-1.3-1.1-1.4-0.2c-0.3,2,0.5,3.9,1,5.8c0.2,0.9,1.5,0.8,1.5-0.2
			C445.3,504.9,444.2,503.2,444.4,501.3z"/>
		<path class="st9" d="M429.9,502.7c-0.1-0.7-1.4-0.8-1.4,0c0,2,1.3,3.6,2,5.4c0.3,0.7,1.5,0.4,1.4-0.4
			C431.6,505.9,430.2,504.5,429.9,502.7z"/>
		<path class="st9" d="M437.1,495c-0.1-0.9-1.5-0.7-1.4,0.2c0.2,1.5,0.6,3,0.9,4.5c0.2,0.9,1.5,0.7,1.4-0.2
			C437.8,498,437.4,496.6,437.1,495z"/>
		<path class="st9" d="M451.4,493.6c-1,1.6-0.4,3.8,0.1,5.5c0.2,0.7,1.5,0.6,1.5-0.2c0-1.2-0.9-3.2-0.3-4.2
			C453.3,493.7,452,492.7,451.4,493.6z"/>
		<path class="st9" d="M350.9,556.6c-0.2-0.9-1.5-0.7-1.4,0.2c0.1,1.8,0.4,3.5,0.3,5.3c-0.1,0.9,1.3,1.1,1.4,0.2
			C351.5,560.4,351.2,558.5,350.9,556.6z"/>
		<path class="st9" d="M357,549.7c-0.4,1-0.2,1.8-0.3,2.8c0,1.2-0.1,2.3-0.5,3.5c-0.3,0.9,0.9,1.4,1.3,0.6c0.4-1,0.5-2,0.6-3
			c0.1-1.1-0.3-2.3,0.1-3.3C358.5,549.4,357.4,548.9,357,549.7z"/>
		<path class="st9" d="M352.4,542c-0.2-0.9-1.6-0.7-1.4,0.2c0.4,1.7,0,3.5-0.4,5.2c-0.2,0.8,1.1,1.1,1.4,0.4
			C352.7,546,352.9,543.8,352.4,542z"/>
		<path class="st9" d="M359.9,534.9c-0.5,1.7-0.8,3.4-0.7,5.1c0,0.8,1.3,0.8,1.4,0c0.1-1.6,0.3-3.2,0.7-4.7
			C361.4,534.5,360.1,534.1,359.9,534.9z"/>
		<path class="st9" d="M352.5,525.4c-0.4,2.1-0.4,4.3-0.3,6.4c0.1,0.8,1.4,0.8,1.4,0c0.1-2.1-0.1-4.2,0.3-6.2
			C354.1,524.7,352.7,524.5,352.5,525.4z"/>
		<path class="st9" d="M364.7,520.6c-0.3,1.6-0.6,3.3-0.7,5c-0.1,0.9,1.2,1.1,1.4,0.2c0.4-1.6,0.5-3.3,0.6-5
			C366.2,519.9,364.9,519.7,364.7,520.6z"/>
		<path class="st9" d="M358.6,515.7c-0.5,2.2-0.2,4.5-0.6,6.7c-0.1,0.8,1.1,1.2,1.4,0.4c0.8-2.2,0.3-4.6,0.8-6.9
			C360.5,514.9,358.9,514.7,358.6,515.7z"/>
		<path class="st9" d="M376.4,510.7c-0.5,0.8-0.4,1.5-0.7,2.4c-0.3,1-0.7,1.9-1.1,2.9c-0.3,0.8,0.8,1.5,1.3,0.7
			c0.5-0.8,0.9-1.6,1.3-2.5c0.3-0.9,0.2-1.9,0.6-2.7C378.2,510.7,376.8,509.9,376.4,510.7z"/>
		<path class="st9" d="M367.1,507.2c-0.2,2-0.5,3.9-1,5.9c-0.2,0.8,1.1,1.1,1.4,0.4c0.8-1.9,0.8-4,1-6.1
			C368.6,506.5,367.2,506.3,367.1,507.2z"/>
		<path class="st9" d="M354.4,504.6c-0.7,1.6-0.7,3.7-0.3,5.3c0.2,1,1.5,0.8,1.5-0.2c0-1.5-0.3-3.1,0.2-4.5
			C356.1,504.2,354.8,503.6,354.4,504.6z"/>
		<path class="st9" d="M392.7,471.3c-0.9,0.1-0.7,1.4,0.2,1.3C393.8,472.5,393.6,471.2,392.7,471.3z"/>
		<path class="st9" d="M388,469c-1,0.1-0.8,1.7,0.2,1.5C389.2,470.4,389,468.9,388,469z"/>
		<path class="st9" d="M392.3,467c-0.1,0-0.2-0.1-0.3-0.1c-1.2-0.2-0.9,1.9,0.2,1.4c0.1,0,0.2-0.1,0.2-0.1
			C392.9,467.9,392.8,467.1,392.3,467z"/>
		<path class="st9" d="M409.6,469.1c-0.9,0.1-0.7,1.5,0.2,1.4C410.7,470.4,410.5,469,409.6,469.1z"/>
		<path class="st9" d="M408.6,465.6c0,0.2,0.2,0.3,0.3,0.4c0.3,0.2,0.8,0.2,1-0.1c0.1-0.1,0.2-0.3,0.2-0.4
			C410,464.1,408.2,464.4,408.6,465.6z"/>
		<path class="st9" d="M413.7,465.4c-1,0.1-0.8,1.7,0.2,1.6C414.9,466.8,414.7,465.2,413.7,465.4z"/>
	</g>
	<g class="st2">
		<linearGradient id="SVGID_3_" gradientUnits="userSpaceOnUse" x1="428.3165" y1="153.1665" x2="453.3719" y2="153.1665">
			<stop  offset="0" style="stop-color:#231F20"/>
			<stop  offset="8.962709e-02" style="stop-color:#231F20"/>
			<stop  offset="1" style="stop-color:#231F20"/>
		</linearGradient>
		<path class="st10" d="M450.9,148.4c-0.2,0.1-0.3,0.3-0.5,0.5c0-0.9-0.9-1.8-1.8-1.2c-0.1,0.1-0.1,0.1-0.2,0.2
			c0.2-0.8-0.4-1.6-1.2-1.6c-0.8,0-1.5,0.3-2.3,0.8c0.6-1.1,1.2-2.2,1.8-3.2c0.6-1-0.9-1.8-1.5-0.9c-2.5,3.7-4.3,7.6-7.4,11.1
			c-2.6,2.9-5.8,5.4-8.7,8.1c-0.7,0.6-0.1,1.7,0.7,1.7c6.7,0.1,13.2-5.2,18.1-9.2c1.6-1.3,3.2-2.8,4.5-4.7c0.1-0.1,0.1-0.1,0.2-0.2
			C453.5,148.6,451.8,147.6,450.9,148.4z"/>
		<linearGradient id="SVGID_4_" gradientUnits="userSpaceOnUse" x1="432.8336" y1="125.0224" x2="495.4192" y2="125.0224">
			<stop  offset="0" style="stop-color:#231F20"/>
			<stop  offset="8.962709e-02" style="stop-color:#231F20"/>
			<stop  offset="1" style="stop-color:#231F20"/>
		</linearGradient>
		<path class="st11" d="M487.5,105.9c-6.6-8-17.6-11.9-27.8-10.3c-10.1,1.5-19.1,7.4-23,17.1c-3.2,8.1-5.6,18.4,0,25.9
			c1.9,3.5,4.5,6.7,7.6,9c9.1,6.9,20.2,8.4,31.3,6.2c10.7-2.1,17.1-11.9,19-22.1C496,123.7,492.6,112.2,487.5,105.9z"/>
		<path class="st6" d="M479.9,117.9c-1.3-1.7-3.4-2.4-5.4-2.8c-3.9-0.7-7.6,2.5-9.6,5.8c-1.3-3.1-4-5.7-7.4-6.1
			c-4-0.5-8.2,1.1-9.3,5.3c-1.6,6.8,4.5,12.2,9.5,15.7c1.5,1,3,2,4.4,3.1c1.2,0.9,2.2,1.9,3.7,1.1c2.4-1.2,4.3-2.9,6.3-4.6
			c3.7-3.1,8-6.8,8.6-11.8C481.2,122,481,119.3,479.9,117.9z"/>
	</g>
</g>
</svg>
