<svg id="Layer_1" data-name="Layer 1" xmlns="http://www.w3.org/2000/svg" viewBox="0 0 713.18 433">
  <defs>
    <style>
      .cls-1 {
        fill: #f26671;
      }

      .cls-2, .cls-3 {
        fill: none;
        stroke: #fff;
        stroke-miterlimit: 10;
        stroke-width: 6px;
      }

      .cls-2 {
        stroke-linecap: round;
      }

      .cls-4 {
        fill: #fff;
      }
    </style>
  </defs>
  <title>logoNoText</title>
  <rect class="cls-1" width="713.18" height="433"/>
  <g>
    <path class="cls-2" d="M147.14,174S99,188.17,134.41,223.54"/>
    <path class="cls-2" d="M126.36,296.73s-5.87-25.89-3.95-44a51.53,51.53,0,0,1,7.94-23.16c9.66-14.55,25.11-26.1,57.2-26.1"/>
    <path class="cls-2" d="M171.2,294.29s-7.64-42.94,26.38-43.29c30.18-.3,23.13,43.29,23.13,43.29"/>
    <path class="cls-3" d="M189.59,136.51v64.8A32,32,0,0,0,209.42,231c8.22,3.31,19.5,5.87,34.72,5.87a106.42,106.42,0,0,0,23.55-2.42,40,40,0,0,0,31-39.15V135.18a.24.24,0,0,0-.43-.14l-20.56,27.41a12.65,12.65,0,0,1-10.12,5.06H220a13.89,13.89,0,0,1-11.37-5.92l-17.83-25.45A.65.65,0,0,0,189.59,136.51Z"/>
  </g>
  <path class="cls-2" d="M264.76,235.09s3.33,7.6,3.33,20.82v38.38"/>
  <g>
    <path class="cls-4" d="M400.47,241.73c-3.17,1.65-10.2,3.86-19.16,3.86-20.12,0-33.22-13.65-33.22-34s14.06-35.42,35.84-35.42a40.55,40.55,0,0,1,16.82,3.45L398,188.94c-2.89-1.65-7.44-3.17-14.06-3.17-15.3,0-23.57,11.3-23.57,25.22,0,15.44,9.92,24.95,23.16,24.95a34.45,34.45,0,0,0,14.89-3.31Z"/>
    <path class="cls-4" d="M451.61,244.21l-1-8.41h-.41a24.85,24.85,0,0,1-20.4,9.92c-13.51,0-20.4-9.51-20.4-19.16,0-16.13,14.33-24.95,40.11-24.81v-1.38c0-5.51-1.52-15.44-15.16-15.44a33.24,33.24,0,0,0-17.37,5l-2.76-8c5.51-3.58,13.51-5.93,21.92-5.93,20.4,0,25.36,13.92,25.36,27.29v24.95a93.92,93.92,0,0,0,1.1,16Zm-1.79-34c-13.23-.28-28.26,2.07-28.26,15,0,7.86,5.24,11.58,11.44,11.58a16.6,16.6,0,0,0,16.13-11.16,12.64,12.64,0,0,0,.69-3.86Z"/>
    <path class="cls-4" d="M495.16,158.34V177.5h17.37v9.23H495.16v36c0,8.27,2.34,13,9.1,13a27,27,0,0,0,7-.83l.55,9.1a29.69,29.69,0,0,1-10.75,1.65c-5.65,0-10.2-1.79-13.09-5.1-3.45-3.58-4.69-9.51-4.69-17.37V186.73H473V177.5h10.34v-16Z"/>
    <path class="cls-4" d="M540.79,158.34V177.5h17.37v9.23H540.79v36c0,8.27,2.34,13,9.1,13a27,27,0,0,0,7-.83l.55,9.1a29.69,29.69,0,0,1-10.75,1.65c-5.65,0-10.2-1.79-13.09-5.1-3.45-3.58-4.69-9.51-4.69-17.37V186.73H518.6V177.5h10.34v-16Z"/>
    <path class="cls-4" d="M577.45,177.5l14.61,39.42c1.52,4.41,3.17,9.65,4.27,13.65h.28c1.24-4,2.62-9.1,4.27-13.92l13.23-39.14h12.82l-18.19,47.55c-8.68,22.88-14.61,34.6-22.88,41.76A32.86,32.86,0,0,1,571,274.67l-3-10.2a32.09,32.09,0,0,0,10.61-5.93A36.79,36.79,0,0,0,588.75,245a8.69,8.69,0,0,0,1-2.89,10.56,10.56,0,0,0-.83-3.17L564.22,177.5Z"/>
  </g>
  <path class="cls-2" d="M222.25,299.33"/>
  <path class="cls-2" d="M170.25,299"/>
</svg>
